<svg viewBox="407.4766 276.4328 331.0468 131.1344" width="5000" height="1980.6021384287658" xmlns="http://www.w3.org/2000/svg" xmlns:xlink="http://www.w3.org/1999/xlink" preserveAspectRatio="none"><defs></defs><style>.aD6z1nYkhcolor {fill:#EDE9D9;fill-opacity:1;}.aIptOCySncolors-0 {fill:#FD8B49;fill-opacity:1;}.icon3-str {stroke:#DB5192;stroke-opacity:1;}</style><g opacity="1" transform="rotate(0 501.8755 276.4328)">
<svg width="142.249" height="99.7992" x="501.8755" y="276.4328" version="1.1" preserveAspectRatio="none" viewBox="0.01762254908680916 4.78802490234375 31.97351455688477 22.4320068359375">
  <g transform="matrix(1 0 0 1 0 0)" class="aIptOCySncolors-0"><g transform="translate(0,-1020.3622)"><path style="color:#000000;font-style:normal;font-variant:normal;font-weight:normal;font-stretch:normal;font-size:medium;line-height:normal;text-indent:0;text-align:start;text-decoration:none;text-decoration-line:none;text-decoration-style:solid;text-decoration-color:#000000;letter-spacing:normal;word-spacing:normal;text-transform:none;direction:ltr;block-progression:tb;writing-mode:lr-tb;baseline-shift:baseline;text-anchor:start;white-space:normal;clip-rule:nonzero;display:inline;overflow:visible;visibility:visible;opacity:1;isolation:auto;mix-blend-mode:normal;color-interpolation:sRGB;color-interpolation-filters:linearRGB;solid-color:#000000;solid-opacity:1;fill-rule:evenodd;stroke-width:1px;stroke-linecap:butt;stroke-linejoin:miter;stroke-miterlimit:4;stroke-dasharray:none;stroke-dashoffset:0;color-rendering:auto;image-rendering:auto;shape-rendering:auto;text-rendering:auto;enable-background:accumulate" d="m 6.9589844,1036.6992 c -1.271616,-0.1335 -2.5621363,0.2084 -3.6582032,0.7403 -0.9810163,0.4759 -1.8786179,1.2024 -2.48437495,2.1191 -0.51283024,0.7762 -0.72098042,1.6873 -0.78515625,2.541 -9.1018e-4,0.012 0.0067158,0.025 0.0058594,0.037 l -0.0078125,0 0,0 0.0078125,0 c -0.06077634,0.8642 0.0068577,1.8003 0.40039063,2.6445 0.42475589,0.9112 1.0717833,1.9309 2.1464844,2.4004 1.4716453,0.6432 3.2041043,0.4259 4.6269531,-0.049 1.4317671,-0.4778 2.7366486,-1.4336 3.6035155,-2.6407 0.647809,-0.9021 1.050136,-2.0452 0.976563,-3.1777 -0.07458,-1.1474 -0.590816,-2.2972 -1.429688,-3.1152 -0.9039646,-0.8816 -2.1714911,-1.3727 -3.4023436,-1.502 z m -0.1054688,0.9942 c 1.0335047,0.1085 2.1151235,0.5444 2.8105469,1.2226 0.6432345,0.6272 1.0713885,1.5799 1.1289065,2.4649 0.05495,0.8457 -0.264438,1.7986 -0.789063,2.5293 -0.7326149,1.0201 -1.8881929,1.8679 -3.1093748,2.2753 -1.2704259,0.4239 -2.7927475,0.5705 -3.9101562,0.082 -0.7039425,-0.3075 -1.2646555,-1.0997 -1.640625,-1.9063 -0.296977,-0.6371 -0.37365947,-1.4239 -0.3164062,-2.1855 0.055758,-0.7417 0.2431216,-1.4914 0.6230468,-2.0664 0.4867062,-0.7365 1.2535998,-1.3667 2.0878906,-1.7715 0.9672484,-0.4694 2.095372,-0.7516 3.1152344,-0.6445 z"></path><path style="color:#000000;font-style:normal;font-variant:normal;font-weight:normal;font-stretch:normal;font-size:medium;line-height:normal;text-indent:0;text-align:start;text-decoration:none;text-decoration-line:none;text-decoration-style:solid;text-decoration-color:#000000;letter-spacing:normal;word-spacing:normal;text-transform:none;direction:ltr;block-progression:tb;writing-mode:lr-tb;baseline-shift:baseline;text-anchor:start;white-space:normal;clip-rule:nonzero;display:inline;overflow:visible;visibility:visible;opacity:1;isolation:auto;mix-blend-mode:normal;color-interpolation:sRGB;color-interpolation-filters:linearRGB;solid-color:#000000;solid-opacity:1;fill-rule:evenodd;stroke-width:0.25000003;stroke-linecap:round;stroke-linejoin:round;stroke-miterlimit:4;stroke-dasharray:none;stroke-dashoffset:0;color-rendering:auto;image-rendering:auto;shape-rendering:auto;text-rendering:auto;enable-background:accumulate" d="m 2.3242188,1040.4258 a 0.12501251,0.12501251 0 0 0 -0.097656,0.082 l -1.25976562,3.3926 a 0.12501251,0.12501251 0 1 0 0.23437502,0.086 l 1.2597656,-3.3906 a 0.12501251,0.12501251 0 0 0 -0.1367187,-0.1699 z"></path><path style="color:#000000;font-style:normal;font-variant:normal;font-weight:normal;font-stretch:normal;font-size:medium;line-height:normal;text-indent:0;text-align:start;text-decoration:none;text-decoration-line:none;text-decoration-style:solid;text-decoration-color:#000000;letter-spacing:normal;word-spacing:normal;text-transform:none;direction:ltr;block-progression:tb;writing-mode:lr-tb;baseline-shift:baseline;text-anchor:start;white-space:normal;clip-rule:nonzero;display:inline;overflow:visible;visibility:visible;opacity:1;isolation:auto;mix-blend-mode:normal;color-interpolation:sRGB;color-interpolation-filters:linearRGB;solid-color:#000000;solid-opacity:1;fill-rule:evenodd;stroke-width:0.25000003;stroke-linecap:round;stroke-linejoin:round;stroke-miterlimit:4;stroke-dasharray:none;stroke-dashoffset:0;color-rendering:auto;image-rendering:auto;shape-rendering:auto;text-rendering:auto;enable-background:accumulate" d="m 3.0449219,1041.9219 a 0.12501251,0.12501251 0 0 0 -0.109375,0.082 l -1.1640625,3.1191 a 0.12515795,0.12515795 0 1 0 0.234375,0.088 l 1.1640625,-3.1191 a 0.12501251,0.12501251 0 0 0 -0.125,-0.1699 z"></path><path style="color:#000000;font-style:normal;font-variant:normal;font-weight:normal;font-stretch:normal;font-size:medium;line-height:normal;text-indent:0;text-align:start;text-decoration:none;text-decoration-line:none;text-decoration-style:solid;text-decoration-color:#000000;letter-spacing:normal;word-spacing:normal;text-transform:none;direction:ltr;block-progression:tb;writing-mode:lr-tb;baseline-shift:baseline;text-anchor:start;white-space:normal;clip-rule:nonzero;display:inline;overflow:visible;visibility:visible;opacity:1;isolation:auto;mix-blend-mode:normal;color-interpolation:sRGB;color-interpolation-filters:linearRGB;solid-color:#000000;solid-opacity:1;fill-rule:evenodd;stroke-width:0.25000003;stroke-linecap:round;stroke-linejoin:round;stroke-miterlimit:4;stroke-dasharray:none;stroke-dashoffset:0;color-rendering:auto;image-rendering:auto;shape-rendering:auto;text-rendering:auto;enable-background:accumulate" d="m 3.9941406,1042.6797 a 0.12501251,0.12501251 0 0 0 -0.095703,0.084 l -1.0898437,3.0761 a 0.12509135,0.12509135 0 1 0 0.2363281,0.082 l 1.0878906,-3.0742 a 0.12501251,0.12501251 0 0 0 -0.1386719,-0.168 z"></path><path style="color:#000000;font-style:normal;font-variant:normal;font-weight:normal;font-stretch:normal;font-size:medium;line-height:normal;text-indent:0;text-align:start;text-decoration:none;text-decoration-line:none;text-decoration-style:solid;text-decoration-color:#000000;letter-spacing:normal;word-spacing:normal;text-transform:none;direction:ltr;block-progression:tb;writing-mode:lr-tb;baseline-shift:baseline;text-anchor:start;white-space:normal;clip-rule:nonzero;display:inline;overflow:visible;visibility:visible;opacity:1;isolation:auto;mix-blend-mode:normal;color-interpolation:sRGB;color-interpolation-filters:linearRGB;solid-color:#000000;solid-opacity:1;fill-rule:evenodd;stroke-width:0.25000003;stroke-linecap:round;stroke-linejoin:round;stroke-miterlimit:4;stroke-dasharray:none;stroke-dashoffset:0;color-rendering:auto;image-rendering:auto;shape-rendering:auto;text-rendering:auto;enable-background:accumulate" d="m 5.0976562,1043.5781 a 0.12501251,0.12501251 0 0 0 -0.1074218,0.086 l -0.765625,2.2168 a 0.12507495,0.12507495 0 1 0 0.2363281,0.082 l 0.765625,-2.2188 a 0.12501251,0.12501251 0 0 0 -0.1289063,-0.166 z"></path><path style="color:#000000;font-style:normal;font-variant:normal;font-weight:normal;font-stretch:normal;font-size:medium;line-height:normal;text-indent:0;text-align:start;text-decoration:none;text-decoration-line:none;text-decoration-style:solid;text-decoration-color:#000000;letter-spacing:normal;word-spacing:normal;text-transform:none;direction:ltr;block-progression:tb;writing-mode:lr-tb;baseline-shift:baseline;text-anchor:start;white-space:normal;clip-rule:nonzero;display:inline;overflow:visible;visibility:visible;opacity:1;isolation:auto;mix-blend-mode:normal;color-interpolation:sRGB;color-interpolation-filters:linearRGB;solid-color:#000000;solid-opacity:1;fill-rule:evenodd;stroke-width:0.25000003;stroke-linecap:round;stroke-linejoin:round;stroke-miterlimit:4;stroke-dasharray:none;stroke-dashoffset:0;color-rendering:auto;image-rendering:auto;shape-rendering:auto;text-rendering:auto;enable-background:accumulate" d="m 6.4199219,1043.9277 a 0.12501251,0.12501251 0 0 0 -0.109375,0.1 l -0.4960938,2.1582 a 0.12531916,0.12531916 0 1 0 0.2441407,0.057 l 0.4941406,-2.1602 a 0.12501251,0.12501251 0 0 0 -0.1328125,-0.1543 z"></path><path style="color:#000000;font-style:normal;font-variant:normal;font-weight:normal;font-stretch:normal;font-size:medium;line-height:normal;text-indent:0;text-align:start;text-decoration:none;text-decoration-line:none;text-decoration-style:solid;text-decoration-color:#000000;letter-spacing:normal;word-spacing:normal;text-transform:none;direction:ltr;block-progression:tb;writing-mode:lr-tb;baseline-shift:baseline;text-anchor:start;white-space:normal;clip-rule:nonzero;display:inline;overflow:visible;visibility:visible;opacity:1;isolation:auto;mix-blend-mode:normal;color-interpolation:sRGB;color-interpolation-filters:linearRGB;solid-color:#000000;solid-opacity:1;fill-rule:evenodd;stroke-width:1px;stroke-linecap:butt;stroke-linejoin:miter;stroke-miterlimit:4;stroke-dasharray:none;stroke-dashoffset:0;color-rendering:auto;image-rendering:auto;shape-rendering:auto;text-rendering:auto;enable-background:accumulate" d="m 18.990234,1029.2441 c 0,0 -3.697274,-0.039 -5.591796,0.072 -0.956449,0.056 -2.141226,-0.1474 -3.259766,0.3652 -0.5397989,0.2474 -0.9813573,0.6768 -1.2578126,1.1875 -0.2340875,0.4325 -0.3214889,0.9315 -0.2539063,1.4141 0.1005497,0.7182 0.5452969,1.1785 0.7304688,1.5547 1.6968641,3.4469 5.1210941,10.3183 5.1210941,10.3183 l 0.109375,0.2188 0.240234,0.047 c 0,0 0.351455,0.072 0.78125,0.1093 0.429795,0.038 0.924857,0.079 1.398437,-0.1269 0.349375,-0.1521 0.518581,-0.3944 0.675782,-0.5977 0.157201,-0.2032 0.267578,-0.3847 0.267578,-0.3847 l 0.144531,-0.2383 -0.126953,-0.2481 c 0,0 -0.751921,-1.4787 -1.521484,-2.9765 -0.384782,-0.7489 -0.774065,-1.5025 -1.076172,-2.0801 -0.151054,-0.2888 -0.279767,-0.533 -0.376953,-0.7129 -0.04859,-0.09 -0.09017,-0.1631 -0.123047,-0.2207 -0.01644,-0.029 -0.03018,-0.054 -0.04492,-0.078 -0.01474,-0.024 -0.01215,-0.03 -0.07422,-0.1 l 0.002,0 c 0.08804,0.099 0.02944,0.037 0.0078,0 -0.02163,-0.037 -0.05461,-0.094 -0.09375,-0.166 -0.07827,-0.1442 -0.185577,-0.3468 -0.310547,-0.586 -0.249941,-0.4782 -0.570858,-1.1051 -0.888672,-1.7265 -0.471956,-0.9229 -0.724568,-1.4232 -0.931641,-1.8321 l 4.6875,-0.5625 c 0.09803,0.2288 0.23147,0.5656 0.582032,1.2188 0.451236,0.8408 1.021768,1.7994 1.755859,2.3418 0.628296,0.4643 1.37471,0.5077 1.960938,0.5683 1.735053,0.1799 3.59463,-0.265 4.904296,-0.2949 0.374415,-0.01 0.653167,-0.2651 0.802735,-0.5117 0.149568,-0.2466 0.224359,-0.5181 0.255859,-0.7969 0.0315,-0.2788 0.01871,-0.562 -0.06641,-0.8359 -0.08512,-0.2739 -0.26972,-0.5813 -0.619141,-0.7051 -0.850551,-0.3013 -1.761472,0.049 -2.701172,0.25 -0.939699,0.2008 -1.837454,0.2942 -2.398437,-0.012 -0.225329,-0.1229 -0.363074,-0.331 -0.509766,-0.6563 -0.146691,-0.3252 -0.272867,-0.7432 -0.535156,-1.1464 -0.41572,-0.6392 -1.261719,-1.8555 -1.261719,-1.8555 l -0.146484,-0.2129 -0.257813,-0 z m -10.1093746,1.625 -0.060547,0.1114 0,0.1269 0.060547,-0.2383 z m 9.8417966,-0.6211 c 0.162347,0.2347 0.746806,1.078 1.09375,1.6114 0.159311,0.2449 0.283348,0.6136 0.462891,1.0117 0.179543,0.3981 0.443688,0.8505 0.943359,1.123 0.974067,0.5312 2.10337,0.3233 3.085938,0.1133 0.982568,-0.21 1.888194,-0.3808 2.158203,-0.2851 -0.0496,-0.018 -0.0317,-0.037 -0.002,0.059 0.02975,0.096 0.04566,0.2636 0.02734,0.4257 -0.01831,0.1621 -0.07057,0.319 -0.115235,0.3926 -0.04467,0.074 -0.02868,0.031 0.02734,0.029 -1.496074,0.034 -3.298,0.4548 -4.779297,0.3008 -0.593813,-0.061 -1.146526,-0.1388 -1.46875,-0.377 -0.444209,-0.3282 -1.044176,-1.2206 -1.46875,-2.0117 -0.424574,-0.7911 -0.707031,-1.4765 -0.707031,-1.4765 l -0.144531,-0.3516 -6.837891,0.8242 0.322265,0.6367 c 0,0 0.620796,1.2251 1.257813,2.4707 0.318508,0.6229 0.640002,1.2511 0.892578,1.7344 0.126288,0.2417 0.235323,0.4467 0.318359,0.5996 0.04152,0.077 0.07599,0.1404 0.105469,0.1914 0.02948,0.051 0.0064,0.046 0.111328,0.1641 -0.05365,-0.06 -0.0358,-0.048 -0.03125,-0.041 0.0046,0.01 0.01434,0.026 0.02734,0.049 0.026,0.046 0.06476,0.115 0.111328,0.2012 0.09314,0.1723 0.221142,0.4145 0.371094,0.7012 0.299904,0.5733 0.688059,1.3244 1.072266,2.0722 0.699875,1.3622 1.269889,2.4776 1.386718,2.707 -0.02449,0.034 -0.02127,0.034 -0.05078,0.072 -0.118564,0.1533 -0.307078,0.3034 -0.283203,0.293 -0.100669,0.044 -0.546255,0.079 -0.914063,0.047 -0.241201,-0.021 -0.321315,-0.04 -0.439453,-0.061 -0.149732,-0.3005 -3.344523,-6.7153 -5,-10.0781 -0.2743278,-0.5573 -0.5952612,-0.9419 -0.6386715,-1.252 -0.036417,-0.26 0.018986,-0.5705 0.1425781,-0.7988 l 0,-0 c 4.295e-4,-8e-4 0.00152,-0 0.00195,-0 0.1704575,-0.3136 0.4747522,-0.6042 0.7929692,-0.75 0.7562,-0.3466 1.796111,-0.2127 2.902343,-0.2773 1.719181,-0.1007 4.946393,-0.069 5.265625,-0.066 z"></path><path style="color:#000000;font-style:normal;font-variant:normal;font-weight:normal;font-stretch:normal;font-size:medium;line-height:normal;text-indent:0;text-align:start;text-decoration:none;text-decoration-line:none;text-decoration-style:solid;text-decoration-color:#000000;letter-spacing:normal;word-spacing:normal;text-transform:none;direction:ltr;block-progression:tb;writing-mode:lr-tb;baseline-shift:baseline;text-anchor:start;white-space:normal;clip-rule:nonzero;display:inline;overflow:visible;visibility:visible;opacity:1;isolation:auto;mix-blend-mode:normal;color-interpolation:sRGB;color-interpolation-filters:linearRGB;solid-color:#000000;solid-opacity:1;fill-rule:evenodd;stroke-width:1px;stroke-linecap:round;stroke-linejoin:round;stroke-miterlimit:4;stroke-dasharray:none;stroke-dashoffset:0;color-rendering:auto;image-rendering:auto;shape-rendering:auto;text-rendering:auto;enable-background:accumulate" d="m 22.292969,1025.1504 a 0.50005,0.50005 0 0 0 -0.128907,0.016 l -2.441406,0.6563 a 0.50054486,0.50054486 0 0 0 0.259766,0.9668 l 0.960937,-0.2579 1.207032,2.1309 a 0.50005,0.50005 0 0 0 0.134765,0.1524 l 1.578125,1.1933 a 0.50005,0.50005 0 0 0 0.41211,0.088 l 2.289062,-0.5234 a 0.50005,0.50005 0 0 0 0.380859,-0.5782 l -0.322265,-1.7343 a 0.50005,0.50005 0 0 0 -0.183594,-0.3028 l -1.591797,-1.25 a 0.50005,0.50005 0 0 0 -0.210937,-0.096 l -2.244141,-0.4511 a 0.50005,0.50005 0 0 0 -0.09961,-0.01 z m 0.01758,1.0117 2.013672,0.4063 1.349609,1.0605 0.201172,1.0762 -1.59375,0.3633 -1.310547,-0.9883 -1.029297,-1.8184 0.369141,-0.1 z"></path><path style="color:#000000;font-style:normal;font-variant:normal;font-weight:normal;font-stretch:normal;font-size:medium;line-height:normal;text-indent:0;text-align:start;text-decoration:none;text-decoration-line:none;text-decoration-style:solid;text-decoration-color:#000000;letter-spacing:normal;word-spacing:normal;text-transform:none;direction:ltr;block-progression:tb;writing-mode:lr-tb;baseline-shift:baseline;text-anchor:start;white-space:normal;clip-rule:nonzero;display:inline;overflow:visible;visibility:visible;opacity:1;isolation:auto;mix-blend-mode:normal;color-interpolation:sRGB;color-interpolation-filters:linearRGB;solid-color:#000000;solid-opacity:1;fill-rule:evenodd;stroke-width:1px;stroke-linecap:butt;stroke-linejoin:miter;stroke-miterlimit:4;stroke-dasharray:none;stroke-dashoffset:0;color-rendering:auto;image-rendering:auto;shape-rendering:auto;text-rendering:auto;enable-background:accumulate" d="m 27.150391,1036.5742 c -1.271616,-0.1335 -2.560183,0.2084 -3.65625,0.7403 -0.980955,0.476 -1.880561,1.2023 -2.486329,2.1191 -0.512857,0.7761 -0.720977,1.6892 -0.785156,2.543 -9.11e-4,0.012 0.0067,0.025 0.0059,0.037 -0.06101,0.8647 0.0066,1.7997 0.40039,2.6445 0.424756,0.9112 1.071783,1.9309 2.146485,2.4004 1.471645,0.6432 3.206057,0.4259 4.628906,-0.049 1.431766,-0.4778 2.736649,-1.4336 3.603515,-2.6407 0.64781,-0.9021 1.048185,-2.0434 0.97461,-3.1757 -0.07458,-1.1475 -0.588847,-2.2992 -1.427734,-3.1172 -0.903965,-0.8816 -2.173444,-1.3727 -3.404297,-1.502 z m -0.103516,0.9942 c 1.033505,0.1085 2.11317,0.5464 2.808594,1.2246 0.643218,0.6272 1.071388,1.5798 1.128906,2.4648 0.05495,0.8456 -0.264438,1.7967 -0.789063,2.5274 -0.732615,1.0201 -1.888193,1.8679 -3.109374,2.2753 -1.270427,0.4239 -2.792748,0.5705 -3.910157,0.082 -0.703942,-0.3075 -1.264655,-1.0997 -1.640625,-1.9063 -0.296984,-0.6371 -0.371706,-1.4239 -0.314453,-2.1855 0.05576,-0.7418 0.241195,-1.4896 0.621094,-2.0645 0.486694,-0.7366 1.253539,-1.3665 2.087891,-1.7715 0.967248,-0.4693 2.097325,-0.7535 3.117187,-0.6464 z"></path><path style="color:#000000;font-style:normal;font-variant:normal;font-weight:normal;font-stretch:normal;font-size:medium;line-height:normal;text-indent:0;text-align:start;text-decoration:none;text-decoration-line:none;text-decoration-style:solid;text-decoration-color:#000000;letter-spacing:normal;word-spacing:normal;text-transform:none;direction:ltr;block-progression:tb;writing-mode:lr-tb;baseline-shift:baseline;text-anchor:start;white-space:normal;clip-rule:nonzero;display:inline;overflow:visible;visibility:visible;opacity:1;isolation:auto;mix-blend-mode:normal;color-interpolation:sRGB;color-interpolation-filters:linearRGB;solid-color:#000000;solid-opacity:1;fill-rule:evenodd;stroke-width:0.25000003;stroke-linecap:round;stroke-linejoin:round;stroke-miterlimit:4;stroke-dasharray:none;stroke-dashoffset:0;color-rendering:auto;image-rendering:auto;shape-rendering:auto;text-rendering:auto;enable-background:accumulate" d="m 22.529297,1040.3008 a 0.12501251,0.12501251 0 0 0 -0.111328,0.082 l -1.257813,3.3926 a 0.12515795,0.12515795 0 1 0 0.234375,0.088 l 1.257813,-3.3926 a 0.12501251,0.12501251 0 0 0 -0.123047,-0.1699 z"></path><path style="color:#000000;font-style:normal;font-variant:normal;font-weight:normal;font-stretch:normal;font-size:medium;line-height:normal;text-indent:0;text-align:start;text-decoration:none;text-decoration-line:none;text-decoration-style:solid;text-decoration-color:#000000;letter-spacing:normal;word-spacing:normal;text-transform:none;direction:ltr;block-progression:tb;writing-mode:lr-tb;baseline-shift:baseline;text-anchor:start;white-space:normal;clip-rule:nonzero;display:inline;overflow:visible;visibility:visible;opacity:1;isolation:auto;mix-blend-mode:normal;color-interpolation:sRGB;color-interpolation-filters:linearRGB;solid-color:#000000;solid-opacity:1;fill-rule:evenodd;stroke-width:0.25000003;stroke-linecap:round;stroke-linejoin:round;stroke-miterlimit:4;stroke-dasharray:none;stroke-dashoffset:0;color-rendering:auto;image-rendering:auto;shape-rendering:auto;text-rendering:auto;enable-background:accumulate" d="m 23.238281,1041.7969 a 0.12501251,0.12501251 0 0 0 -0.111328,0.084 L 21.962891,1045 a 0.12501251,0.12501251 0 1 0 0.234375,0.086 l 1.164062,-3.1191 a 0.12501251,0.12501251 0 0 0 -0.123047,-0.1699 z"></path><path style="color:#000000;font-style:normal;font-variant:normal;font-weight:normal;font-stretch:normal;font-size:medium;line-height:normal;text-indent:0;text-align:start;text-decoration:none;text-decoration-line:none;text-decoration-style:solid;text-decoration-color:#000000;letter-spacing:normal;word-spacing:normal;text-transform:none;direction:ltr;block-progression:tb;writing-mode:lr-tb;baseline-shift:baseline;text-anchor:start;white-space:normal;clip-rule:nonzero;display:inline;overflow:visible;visibility:visible;opacity:1;isolation:auto;mix-blend-mode:normal;color-interpolation:sRGB;color-interpolation-filters:linearRGB;solid-color:#000000;solid-opacity:1;fill-rule:evenodd;stroke-width:0.25000003;stroke-linecap:round;stroke-linejoin:round;stroke-miterlimit:4;stroke-dasharray:none;stroke-dashoffset:0;color-rendering:auto;image-rendering:auto;shape-rendering:auto;text-rendering:auto;enable-background:accumulate" d="m 24.199219,1042.5547 a 0.12501251,0.12501251 0 0 0 -0.109375,0.084 l -1.087891,3.0761 a 0.12501251,0.12501251 0 1 0 0.234375,0.084 l 1.089844,-3.0761 a 0.12501251,0.12501251 0 0 0 -0.126953,-0.168 z"></path><path style="color:#000000;font-style:normal;font-variant:normal;font-weight:normal;font-stretch:normal;font-size:medium;line-height:normal;text-indent:0;text-align:start;text-decoration:none;text-decoration-line:none;text-decoration-style:solid;text-decoration-color:#000000;letter-spacing:normal;word-spacing:normal;text-transform:none;direction:ltr;block-progression:tb;writing-mode:lr-tb;baseline-shift:baseline;text-anchor:start;white-space:normal;clip-rule:nonzero;display:inline;overflow:visible;visibility:visible;opacity:1;isolation:auto;mix-blend-mode:normal;color-interpolation:sRGB;color-interpolation-filters:linearRGB;solid-color:#000000;solid-opacity:1;fill-rule:evenodd;stroke-width:0.25000003;stroke-linecap:round;stroke-linejoin:round;stroke-miterlimit:4;stroke-dasharray:none;stroke-dashoffset:0;color-rendering:auto;image-rendering:auto;shape-rendering:auto;text-rendering:auto;enable-background:accumulate" d="m 25.291016,1043.4531 a 0.12501251,0.12501251 0 0 0 -0.109375,0.086 l -0.763672,2.2168 a 0.1250749,0.1250749 0 1 0 0.236328,0.082 l 0.763672,-2.2168 a 0.12501251,0.12501251 0 0 0 -0.126953,-0.168 z"></path><path style="color:#000000;font-style:normal;font-variant:normal;font-weight:normal;font-stretch:normal;font-size:medium;line-height:normal;text-indent:0;text-align:start;text-decoration:none;text-decoration-line:none;text-decoration-style:solid;text-decoration-color:#000000;letter-spacing:normal;word-spacing:normal;text-transform:none;direction:ltr;block-progression:tb;writing-mode:lr-tb;baseline-shift:baseline;text-anchor:start;white-space:normal;clip-rule:nonzero;display:inline;overflow:visible;visibility:visible;opacity:1;isolation:auto;mix-blend-mode:normal;color-interpolation:sRGB;color-interpolation-filters:linearRGB;solid-color:#000000;solid-opacity:1;fill-rule:evenodd;stroke-width:0.25000003;stroke-linecap:round;stroke-linejoin:round;stroke-miterlimit:4;stroke-dasharray:none;stroke-dashoffset:0;color-rendering:auto;image-rendering:auto;shape-rendering:auto;text-rendering:auto;enable-background:accumulate" d="m 26.613281,1043.8047 a 0.12501251,0.12501251 0 0 0 -0.111328,0.098 l -0.494141,2.1582 a 0.12531931,0.12531931 0 1 0 0.244141,0.057 l 0.494141,-2.1582 a 0.12501251,0.12501251 0 0 0 -0.132813,-0.1543 z"></path></g></g>
</svg>
</g><g opacity="1" transform="rotate(0 407.4766 380.5672)">

</g></svg>