<svg viewBox="407.4766 276.4328 331.0468 131.1344" width="5000" height="1980.6021384287658" xmlns="http://www.w3.org/2000/svg" xmlns:xlink="http://www.w3.org/1999/xlink" preserveAspectRatio="none"><defs></defs><style>.aD6z1nYkhcolor {fill:#EDE9D9;fill-opacity:1;}.aIptOCySncolors-0 {fill:#FD8B49;fill-opacity:1;}.icon3-str {stroke:#DB5192;stroke-opacity:1;}</style><g opacity="1" transform="rotate(0 501.8755 276.4328)">
<svg width="142.249" height="99.7992" x="501.8755" y="276.4328" version="1.1" preserveAspectRatio="none" viewBox="0.01762254908680916 4.78802490234375 31.97351455688477 22.4320068359375">
  <g transform="matrix(1 0 0 1 0 0)" class="aIptOCySncolors-0"><g transform="translate(0,-1020.3622)"><path style="color:#000000;font-style:normal;font-variant:normal;font-weight:normal;font-stretch:normal;font-size:medium;line-height:normal;text-indent:0;text-align:start;text-decoration:none;text-decoration-line:none;text-decoration-style:solid;text-decoration-color:#000000;letter-spacing:normal;word-spacing:normal;text-transform:none;direction:ltr;block-progression:tb;writing-mode:lr-tb;baseline-shift:baseline;text-anchor:start;white-space:normal;clip-rule:nonzero;display:inline;overflow:visible;visibility:visible;opacity:1;isolation:auto;mix-blend-mode:normal;color-interpolation:sRGB;color-interpolation-filters:linearRGB;solid-color:#000000;solid-opacity:1;fill-rule:evenodd;stroke-width:1px;stroke-linecap:butt;stroke-linejoin:miter;stroke-miterlimit:4;stroke-dasharray:none;stroke-dashoffset:0;color-rendering:auto;image-rendering:auto;shape-rendering:auto;text-rendering:auto;enable-background:accumulate" d="m 6.9589844,1036.6992 c -1.271616,-0.1335 -2.5621363,0.2084 -3.6582032,0.7403 -0.9810163,0.4759 -1.8786179,1.2024 -2.48437495,2.1191 -0.51283024,0.7762 -0.72098042,1.6873 -0.78515625,2.541 -9.1018e-4,0.012 0.0067158,0.025 0.0058594,0.037 l -0.0078125,0 0,0 0.0078125,0 c -0.06077634,0.8642 0.0068577,1.8003 0.40039063,2.6445 0.42475589,0.9112 1.0717833,1.9309 2.1464844,2.4004 1.4716453,0.6432 3.2041043,0.4259 4.6269531,-0.049 1.4317671,-0.4778 2.7366486,-1.4336 3.6035155,-2.6407 0.647809,-0.9021 1.050136,-2.0452 0.976563,-3.1777 -0.07458,-1.1474 -0.590816,-2.2972 -1.429688,-3.1152 -0.9039646,-0.8816 -2.1714911,-1.3727 -3.4023436,-1.502 z m -0.1054688,0.9942 c 1.0335047,0.1085 2.1151235,0.5444 2.8105469,1.2226 0.6432345,0.6272 1.0713885,1.5799 1.1289065,2.4649 0.05495,0.8457 -0.264438,1.7986 -0.789063,2.5293 -0.7326149,1.0201 -1.8881929,1.8679 -3.1093748,2.2753 -1.2704259,0.4239 -2.7927475,0.5705 -3.9101562,0.082 -0.7039425,-0.3075 -1.2646555,-1.0997 -1.640625,-1.9063 -0.296977,-0.6371 -0.37365947,-1.4239 -0.3164062,-2.1855 0.055758,-0.7417 0.2431216,-1.4914 0.6230468,-2.0664 0.4867062,-0.7365 1.2535998,-1.3667 2.0878906,-1.7715 0.9672484,-0.4694 2.095372,-0.7516 3.1152344,-0.6445 z"></path><path style="color:#000000;font-style:normal;font-variant:normal;font-weight:normal;font-stretch:normal;font-size:medium;line-height:normal;text-indent:0;text-align:start;text-decoration:none;text-decoration-line:none;text-decoration-style:solid;text-decoration-color:#000000;letter-spacing:normal;word-spacing:normal;text-transform:none;direction:ltr;block-progression:tb;writing-mode:lr-tb;baseline-shift:baseline;text-anchor:start;white-space:normal;clip-rule:nonzero;display:inline;overflow:visible;visibility:visible;opacity:1;isolation:auto;mix-blend-mode:normal;color-interpolation:sRGB;color-interpolation-filters:linearRGB;solid-color:#000000;solid-opacity:1;fill-rule:evenodd;stroke-width:0.25000003;stroke-linecap:round;stroke-linejoin:round;stroke-miterlimit:4;stroke-dasharray:none;stroke-dashoffset:0;color-rendering:auto;image-rendering:auto;shape-rendering:auto;text-rendering:auto;enable-background:accumulate" d="m 2.3242188,1040.4258 a 0.12501251,0.12501251 0 0 0 -0.097656,0.082 l -1.25976562,3.3926 a 0.12501251,0.12501251 0 1 0 0.23437502,0.086 l 1.2597656,-3.3906 a 0.12501251,0.12501251 0 0 0 -0.1367187,-0.1699 z"></path><path style="color:#000000;font-style:normal;font-variant:normal;font-weight:normal;font-stretch:normal;font-size:medium;line-height:normal;text-indent:0;text-align:start;text-decoration:none;text-decoration-line:none;text-decoration-style:solid;text-decoration-color:#000000;letter-spacing:normal;word-spacing:normal;text-transform:none;direction:ltr;block-progression:tb;writing-mode:lr-tb;baseline-shift:baseline;text-anchor:start;white-space:normal;clip-rule:nonzero;display:inline;overflow:visible;visibility:visible;opacity:1;isolation:auto;mix-blend-mode:normal;color-interpolation:sRGB;color-interpolation-filters:linearRGB;solid-color:#000000;solid-opacity:1;fill-rule:evenodd;stroke-width:0.25000003;stroke-linecap:round;stroke-linejoin:round;stroke-miterlimit:4;stroke-dasharray:none;stroke-dashoffset:0;color-rendering:auto;image-rendering:auto;shape-rendering:auto;text-rendering:auto;enable-background:accumulate" d="m 3.0449219,1041.9219 a 0.12501251,0.12501251 0 0 0 -0.109375,0.082 l -1.1640625,3.1191 a 0.12515795,0.12515795 0 1 0 0.234375,0.088 l 1.1640625,-3.1191 a 0.12501251,0.12501251 0 0 0 -0.125,-0.1699 z"></path><path style="color:#000000;font-style:normal;font-variant:normal;font-weight:normal;font-stretch:normal;font-size:medium;line-height:normal;text-indent:0;text-align:start;text-decoration:none;text-decoration-line:none;text-decoration-style:solid;text-decoration-color:#000000;letter-spacing:normal;word-spacing:normal;text-transform:none;direction:ltr;block-progression:tb;writing-mode:lr-tb;baseline-shift:baseline;text-anchor:start;white-space:normal;clip-rule:nonzero;display:inline;overflow:visible;visibility:visible;opacity:1;isolation:auto;mix-blend-mode:normal;color-interpolation:sRGB;color-interpolation-filters:linearRGB;solid-color:#000000;solid-opacity:1;fill-rule:evenodd;stroke-width:0.25000003;stroke-linecap:round;stroke-linejoin:round;stroke-miterlimit:4;stroke-dasharray:none;stroke-dashoffset:0;color-rendering:auto;image-rendering:auto;shape-rendering:auto;text-rendering:auto;enable-background:accumulate" d="m 3.9941406,1042.6797 a 0.12501251,0.12501251 0 0 0 -0.095703,0.084 l -1.0898437,3.0761 a 0.12509135,0.12509135 0 1 0 0.2363281,0.082 l 1.0878906,-3.0742 a 0.12501251,0.12501251 0 0 0 -0.1386719,-0.168 z"></path><path style="color:#000000;font-style:normal;font-variant:normal;font-weight:normal;font-stretch:normal;font-size:medium;line-height:normal;text-indent:0;text-align:start;text-decoration:none;text-decoration-line:none;text-decoration-style:solid;text-decoration-color:#000000;letter-spacing:normal;word-spacing:normal;text-transform:none;direction:ltr;block-progression:tb;writing-mode:lr-tb;baseline-shift:baseline;text-anchor:start;white-space:normal;clip-rule:nonzero;display:inline;overflow:visible;visibility:visible;opacity:1;isolation:auto;mix-blend-mode:normal;color-interpolation:sRGB;color-interpolation-filters:linearRGB;solid-color:#000000;solid-opacity:1;fill-rule:evenodd;stroke-width:0.25000003;stroke-linecap:round;stroke-linejoin:round;stroke-miterlimit:4;stroke-dasharray:none;stroke-dashoffset:0;color-rendering:auto;image-rendering:auto;shape-rendering:auto;text-rendering:auto;enable-background:accumulate" d="m 5.0976562,1043.5781 a 0.12501251,0.12501251 0 0 0 -0.1074218,0.086 l -0.765625,2.2168 a 0.12507495,0.12507495 0 1 0 0.2363281,0.082 l 0.765625,-2.2188 a 0.12501251,0.12501251 0 0 0 -0.1289063,-0.166 z"></path><path style="color:#000000;font-style:normal;font-variant:normal;font-weight:normal;font-stretch:normal;font-size:medium;line-height:normal;text-indent:0;text-align:start;text-decoration:none;text-decoration-line:none;text-decoration-style:solid;text-decoration-color:#000000;letter-spacing:normal;word-spacing:normal;text-transform:none;direction:ltr;block-progression:tb;writing-mode:lr-tb;baseline-shift:baseline;text-anchor:start;white-space:normal;clip-rule:nonzero;display:inline;overflow:visible;visibility:visible;opacity:1;isolation:auto;mix-blend-mode:normal;color-interpolation:sRGB;color-interpolation-filters:linearRGB;solid-color:#000000;solid-opacity:1;fill-rule:evenodd;stroke-width:0.25000003;stroke-linecap:round;stroke-linejoin:round;stroke-miterlimit:4;stroke-dasharray:none;stroke-dashoffset:0;color-rendering:auto;image-rendering:auto;shape-rendering:auto;text-rendering:auto;enable-background:accumulate" d="m 6.4199219,1043.9277 a 0.12501251,0.12501251 0 0 0 -0.109375,0.1 l -0.4960938,2.1582 a 0.12531916,0.12531916 0 1 0 0.2441407,0.057 l 0.4941406,-2.1602 a 0.12501251,0.12501251 0 0 0 -0.1328125,-0.1543 z"></path><path style="color:#000000;font-style:normal;font-variant:normal;font-weight:normal;font-stretch:normal;font-size:medium;line-height:normal;text-indent:0;text-align:start;text-decoration:none;text-decoration-line:none;text-decoration-style:solid;text-decoration-color:#000000;letter-spacing:normal;word-spacing:normal;text-transform:none;direction:ltr;block-progression:tb;writing-mode:lr-tb;baseline-shift:baseline;text-anchor:start;white-space:normal;clip-rule:nonzero;display:inline;overflow:visible;visibility:visible;opacity:1;isolation:auto;mix-blend-mode:normal;color-interpolation:sRGB;color-interpolation-filters:linearRGB;solid-color:#000000;solid-opacity:1;fill-rule:evenodd;stroke-width:1px;stroke-linecap:butt;stroke-linejoin:miter;stroke-miterlimit:4;stroke-dasharray:none;stroke-dashoffset:0;color-rendering:auto;image-rendering:auto;shape-rendering:auto;text-rendering:auto;enable-background:accumulate" d="m 18.990234,1029.2441 c 0,0 -3.697274,-0.039 -5.591796,0.072 -0.956449,0.056 -2.141226,-0.1474 -3.259766,0.3652 -0.5397989,0.2474 -0.9813573,0.6768 -1.2578126,1.1875 -0.2340875,0.4325 -0.3214889,0.9315 -0.2539063,1.4141 0.1005497,0.7182 0.5452969,1.1785 0.7304688,1.5547 1.6968641,3.4469 5.1210941,10.3183 5.1210941,10.3183 l 0.109375,0.2188 0.240234,0.047 c 0,0 0.351455,0.072 0.78125,0.1093 0.429795,0.038 0.924857,0.079 1.398437,-0.1269 0.349375,-0.1521 0.518581,-0.3944 0.675782,-0.5977 0.157201,-0.2032 0.267578,-0.3847 0.267578,-0.3847 l 0.144531,-0.2383 -0.126953,-0.2481 c 0,0 -0.751921,-1.4787 -1.521484,-2.9765 -0.384782,-0.7489 -0.774065,-1.5025 -1.076172,-2.0801 -0.151054,-0.2888 -0.279767,-0.533 -0.376953,-0.7129 -0.04859,-0.09 -0.09017,-0.1631 -0.123047,-0.2207 -0.01644,-0.029 -0.03018,-0.054 -0.04492,-0.078 -0.01474,-0.024 -0.01215,-0.03 -0.07422,-0.1 l 0.002,0 c 0.08804,0.099 0.02944,0.037 0.0078,0 -0.02163,-0.037 -0.05461,-0.094 -0.09375,-0.166 -0.07827,-0.1442 -0.185577,-0.3468 -0.310547,-0.586 -0.249941,-0.4782 -0.570858,-1.1051 -0.888672,-1.7265 -0.471956,-0.9229 -0.724568,-1.4232 -0.931641,-1.8321 l 4.6875,-0.5625 c 0.09803,0.2288 0.23147,0.5656 0.582032,1.2188 0.451236,0.8408 1.021768,1.7994 1.755859,2.3418 0.628296,0.4643 1.37471,0.5077 1.960938,0.5683 1.735053,0.1799 3.59463,-0.265 4.904296,-0.2949 0.374415,-0.01 0.653167,-0.2651 0.802735,-0.5117 0.149568,-0.2466 0.224359,-0.5181 0.255859,-0.7969 0.0315,-0.2788 0.01871,-0.562 -0.06641,-0.8359 -0.08512,-0.2739 -0.26972,-0.5813 -0.619141,-0.7051 -0.850551,-0.3013 -1.761472,0.049 -2.701172,0.25 -0.939699,0.2008 -1.837454,0.2942 -2.398437,-0.012 -0.225329,-0.1229 -0.363074,-0.331 -0.509766,-0.6563 -0.146691,-0.3252 -0.272867,-0.7432 -0.535156,-1.1464 -0.41572,-0.6392 -1.261719,-1.8555 -1.261719,-1.8555 l -0.146484,-0.2129 -0.257813,-0 z m -10.1093746,1.625 -0.060547,0.1114 0,0.1269 0.060547,-0.2383 z m 9.8417966,-0.6211 c 0.162347,0.2347 0.746806,1.078 1.09375,1.6114 0.159311,0.2449 0.283348,0.6136 0.462891,1.0117 0.179543,0.3981 0.443688,0.8505 0.943359,1.123 0.974067,0.5312 2.10337,0.3233 3.085938,0.1133 0.982568,-0.21 1.888194,-0.3808 2.158203,-0.2851 -0.0496,-0.018 -0.0317,-0.037 -0.002,0.059 0.02975,0.096 0.04566,0.2636 0.02734,0.4257 -0.01831,0.1621 -0.07057,0.319 -0.115235,0.3926 -0.04467,0.074 -0.02868,0.031 0.02734,0.029 -1.496074,0.034 -3.298,0.4548 -4.779297,0.3008 -0.593813,-0.061 -1.146526,-0.1388 -1.46875,-0.377 -0.444209,-0.3282 -1.044176,-1.2206 -1.46875,-2.0117 -0.424574,-0.7911 -0.707031,-1.4765 -0.707031,-1.4765 l -0.144531,-0.3516 -6.837891,0.8242 0.322265,0.6367 c 0,0 0.620796,1.2251 1.257813,2.4707 0.318508,0.6229 0.640002,1.2511 0.892578,1.7344 0.126288,0.2417 0.235323,0.4467 0.318359,0.5996 0.04152,0.077 0.07599,0.1404 0.105469,0.1914 0.02948,0.051 0.0064,0.046 0.111328,0.1641 -0.05365,-0.06 -0.0358,-0.048 -0.03125,-0.041 0.0046,0.01 0.01434,0.026 0.02734,0.049 0.026,0.046 0.06476,0.115 0.111328,0.2012 0.09314,0.1723 0.221142,0.4145 0.371094,0.7012 0.299904,0.5733 0.688059,1.3244 1.072266,2.0722 0.699875,1.3622 1.269889,2.4776 1.386718,2.707 -0.02449,0.034 -0.02127,0.034 -0.05078,0.072 -0.118564,0.1533 -0.307078,0.3034 -0.283203,0.293 -0.100669,0.044 -0.546255,0.079 -0.914063,0.047 -0.241201,-0.021 -0.321315,-0.04 -0.439453,-0.061 -0.149732,-0.3005 -3.344523,-6.7153 -5,-10.0781 -0.2743278,-0.5573 -0.5952612,-0.9419 -0.6386715,-1.252 -0.036417,-0.26 0.018986,-0.5705 0.1425781,-0.7988 l 0,-0 c 4.295e-4,-8e-4 0.00152,-0 0.00195,-0 0.1704575,-0.3136 0.4747522,-0.6042 0.7929692,-0.75 0.7562,-0.3466 1.796111,-0.2127 2.902343,-0.2773 1.719181,-0.1007 4.946393,-0.069 5.265625,-0.066 z"></path><path style="color:#000000;font-style:normal;font-variant:normal;font-weight:normal;font-stretch:normal;font-size:medium;line-height:normal;text-indent:0;text-align:start;text-decoration:none;text-decoration-line:none;text-decoration-style:solid;text-decoration-color:#000000;letter-spacing:normal;word-spacing:normal;text-transform:none;direction:ltr;block-progression:tb;writing-mode:lr-tb;baseline-shift:baseline;text-anchor:start;white-space:normal;clip-rule:nonzero;display:inline;overflow:visible;visibility:visible;opacity:1;isolation:auto;mix-blend-mode:normal;color-interpolation:sRGB;color-interpolation-filters:linearRGB;solid-color:#000000;solid-opacity:1;fill-rule:evenodd;stroke-width:1px;stroke-linecap:round;stroke-linejoin:round;stroke-miterlimit:4;stroke-dasharray:none;stroke-dashoffset:0;color-rendering:auto;image-rendering:auto;shape-rendering:auto;text-rendering:auto;enable-background:accumulate" d="m 22.292969,1025.1504 a 0.50005,0.50005 0 0 0 -0.128907,0.016 l -2.441406,0.6563 a 0.50054486,0.50054486 0 0 0 0.259766,0.9668 l 0.960937,-0.2579 1.207032,2.1309 a 0.50005,0.50005 0 0 0 0.134765,0.1524 l 1.578125,1.1933 a 0.50005,0.50005 0 0 0 0.41211,0.088 l 2.289062,-0.5234 a 0.50005,0.50005 0 0 0 0.380859,-0.5782 l -0.322265,-1.7343 a 0.50005,0.50005 0 0 0 -0.183594,-0.3028 l -1.591797,-1.25 a 0.50005,0.50005 0 0 0 -0.210937,-0.096 l -2.244141,-0.4511 a 0.50005,0.50005 0 0 0 -0.09961,-0.01 z m 0.01758,1.0117 2.013672,0.4063 1.349609,1.0605 0.201172,1.0762 -1.59375,0.3633 -1.310547,-0.9883 -1.029297,-1.8184 0.369141,-0.1 z"></path><path style="color:#000000;font-style:normal;font-variant:normal;font-weight:normal;font-stretch:normal;font-size:medium;line-height:normal;text-indent:0;text-align:start;text-decoration:none;text-decoration-line:none;text-decoration-style:solid;text-decoration-color:#000000;letter-spacing:normal;word-spacing:normal;text-transform:none;direction:ltr;block-progression:tb;writing-mode:lr-tb;baseline-shift:baseline;text-anchor:start;white-space:normal;clip-rule:nonzero;display:inline;overflow:visible;visibility:visible;opacity:1;isolation:auto;mix-blend-mode:normal;color-interpolation:sRGB;color-interpolation-filters:linearRGB;solid-color:#000000;solid-opacity:1;fill-rule:evenodd;stroke-width:1px;stroke-linecap:butt;stroke-linejoin:miter;stroke-miterlimit:4;stroke-dasharray:none;stroke-dashoffset:0;color-rendering:auto;image-rendering:auto;shape-rendering:auto;text-rendering:auto;enable-background:accumulate" d="m 27.150391,1036.5742 c -1.271616,-0.1335 -2.560183,0.2084 -3.65625,0.7403 -0.980955,0.476 -1.880561,1.2023 -2.486329,2.1191 -0.512857,0.7761 -0.720977,1.6892 -0.785156,2.543 -9.11e-4,0.012 0.0067,0.025 0.0059,0.037 -0.06101,0.8647 0.0066,1.7997 0.40039,2.6445 0.424756,0.9112 1.071783,1.9309 2.146485,2.4004 1.471645,0.6432 3.206057,0.4259 4.628906,-0.049 1.431766,-0.4778 2.736649,-1.4336 3.603515,-2.6407 0.64781,-0.9021 1.048185,-2.0434 0.97461,-3.1757 -0.07458,-1.1475 -0.588847,-2.2992 -1.427734,-3.1172 -0.903965,-0.8816 -2.173444,-1.3727 -3.404297,-1.502 z m -0.103516,0.9942 c 1.033505,0.1085 2.11317,0.5464 2.808594,1.2246 0.643218,0.6272 1.071388,1.5798 1.128906,2.4648 0.05495,0.8456 -0.264438,1.7967 -0.789063,2.5274 -0.732615,1.0201 -1.888193,1.8679 -3.109374,2.2753 -1.270427,0.4239 -2.792748,0.5705 -3.910157,0.082 -0.703942,-0.3075 -1.264655,-1.0997 -1.640625,-1.9063 -0.296984,-0.6371 -0.371706,-1.4239 -0.314453,-2.1855 0.05576,-0.7418 0.241195,-1.4896 0.621094,-2.0645 0.486694,-0.7366 1.253539,-1.3665 2.087891,-1.7715 0.967248,-0.4693 2.097325,-0.7535 3.117187,-0.6464 z"></path><path style="color:#000000;font-style:normal;font-variant:normal;font-weight:normal;font-stretch:normal;font-size:medium;line-height:normal;text-indent:0;text-align:start;text-decoration:none;text-decoration-line:none;text-decoration-style:solid;text-decoration-color:#000000;letter-spacing:normal;word-spacing:normal;text-transform:none;direction:ltr;block-progression:tb;writing-mode:lr-tb;baseline-shift:baseline;text-anchor:start;white-space:normal;clip-rule:nonzero;display:inline;overflow:visible;visibility:visible;opacity:1;isolation:auto;mix-blend-mode:normal;color-interpolation:sRGB;color-interpolation-filters:linearRGB;solid-color:#000000;solid-opacity:1;fill-rule:evenodd;stroke-width:0.25000003;stroke-linecap:round;stroke-linejoin:round;stroke-miterlimit:4;stroke-dasharray:none;stroke-dashoffset:0;color-rendering:auto;image-rendering:auto;shape-rendering:auto;text-rendering:auto;enable-background:accumulate" d="m 22.529297,1040.3008 a 0.12501251,0.12501251 0 0 0 -0.111328,0.082 l -1.257813,3.3926 a 0.12515795,0.12515795 0 1 0 0.234375,0.088 l 1.257813,-3.3926 a 0.12501251,0.12501251 0 0 0 -0.123047,-0.1699 z"></path><path style="color:#000000;font-style:normal;font-variant:normal;font-weight:normal;font-stretch:normal;font-size:medium;line-height:normal;text-indent:0;text-align:start;text-decoration:none;text-decoration-line:none;text-decoration-style:solid;text-decoration-color:#000000;letter-spacing:normal;word-spacing:normal;text-transform:none;direction:ltr;block-progression:tb;writing-mode:lr-tb;baseline-shift:baseline;text-anchor:start;white-space:normal;clip-rule:nonzero;display:inline;overflow:visible;visibility:visible;opacity:1;isolation:auto;mix-blend-mode:normal;color-interpolation:sRGB;color-interpolation-filters:linearRGB;solid-color:#000000;solid-opacity:1;fill-rule:evenodd;stroke-width:0.25000003;stroke-linecap:round;stroke-linejoin:round;stroke-miterlimit:4;stroke-dasharray:none;stroke-dashoffset:0;color-rendering:auto;image-rendering:auto;shape-rendering:auto;text-rendering:auto;enable-background:accumulate" d="m 23.238281,1041.7969 a 0.12501251,0.12501251 0 0 0 -0.111328,0.084 L 21.962891,1045 a 0.12501251,0.12501251 0 1 0 0.234375,0.086 l 1.164062,-3.1191 a 0.12501251,0.12501251 0 0 0 -0.123047,-0.1699 z"></path><path style="color:#000000;font-style:normal;font-variant:normal;font-weight:normal;font-stretch:normal;font-size:medium;line-height:normal;text-indent:0;text-align:start;text-decoration:none;text-decoration-line:none;text-decoration-style:solid;text-decoration-color:#000000;letter-spacing:normal;word-spacing:normal;text-transform:none;direction:ltr;block-progression:tb;writing-mode:lr-tb;baseline-shift:baseline;text-anchor:start;white-space:normal;clip-rule:nonzero;display:inline;overflow:visible;visibility:visible;opacity:1;isolation:auto;mix-blend-mode:normal;color-interpolation:sRGB;color-interpolation-filters:linearRGB;solid-color:#000000;solid-opacity:1;fill-rule:evenodd;stroke-width:0.25000003;stroke-linecap:round;stroke-linejoin:round;stroke-miterlimit:4;stroke-dasharray:none;stroke-dashoffset:0;color-rendering:auto;image-rendering:auto;shape-rendering:auto;text-rendering:auto;enable-background:accumulate" d="m 24.199219,1042.5547 a 0.12501251,0.12501251 0 0 0 -0.109375,0.084 l -1.087891,3.0761 a 0.12501251,0.12501251 0 1 0 0.234375,0.084 l 1.089844,-3.0761 a 0.12501251,0.12501251 0 0 0 -0.126953,-0.168 z"></path><path style="color:#000000;font-style:normal;font-variant:normal;font-weight:normal;font-stretch:normal;font-size:medium;line-height:normal;text-indent:0;text-align:start;text-decoration:none;text-decoration-line:none;text-decoration-style:solid;text-decoration-color:#000000;letter-spacing:normal;word-spacing:normal;text-transform:none;direction:ltr;block-progression:tb;writing-mode:lr-tb;baseline-shift:baseline;text-anchor:start;white-space:normal;clip-rule:nonzero;display:inline;overflow:visible;visibility:visible;opacity:1;isolation:auto;mix-blend-mode:normal;color-interpolation:sRGB;color-interpolation-filters:linearRGB;solid-color:#000000;solid-opacity:1;fill-rule:evenodd;stroke-width:0.25000003;stroke-linecap:round;stroke-linejoin:round;stroke-miterlimit:4;stroke-dasharray:none;stroke-dashoffset:0;color-rendering:auto;image-rendering:auto;shape-rendering:auto;text-rendering:auto;enable-background:accumulate" d="m 25.291016,1043.4531 a 0.12501251,0.12501251 0 0 0 -0.109375,0.086 l -0.763672,2.2168 a 0.1250749,0.1250749 0 1 0 0.236328,0.082 l 0.763672,-2.2168 a 0.12501251,0.12501251 0 0 0 -0.126953,-0.168 z"></path><path style="color:#000000;font-style:normal;font-variant:normal;font-weight:normal;font-stretch:normal;font-size:medium;line-height:normal;text-indent:0;text-align:start;text-decoration:none;text-decoration-line:none;text-decoration-style:solid;text-decoration-color:#000000;letter-spacing:normal;word-spacing:normal;text-transform:none;direction:ltr;block-progression:tb;writing-mode:lr-tb;baseline-shift:baseline;text-anchor:start;white-space:normal;clip-rule:nonzero;display:inline;overflow:visible;visibility:visible;opacity:1;isolation:auto;mix-blend-mode:normal;color-interpolation:sRGB;color-interpolation-filters:linearRGB;solid-color:#000000;solid-opacity:1;fill-rule:evenodd;stroke-width:0.25000003;stroke-linecap:round;stroke-linejoin:round;stroke-miterlimit:4;stroke-dasharray:none;stroke-dashoffset:0;color-rendering:auto;image-rendering:auto;shape-rendering:auto;text-rendering:auto;enable-background:accumulate" d="m 26.613281,1043.8047 a 0.12501251,0.12501251 0 0 0 -0.111328,0.098 l -0.494141,2.1582 a 0.12531931,0.12531931 0 1 0 0.244141,0.057 l 0.494141,-2.1582 a 0.12501251,0.12501251 0 0 0 -0.132813,-0.1543 z"></path></g></g>
</svg>
</g><g opacity="1" transform="rotate(0 407.4766 380.5672)">
<svg width="331.0468" height="27" x="407.4766" y="380.5672" version="1.1" preserveAspectRatio="none" viewBox="0.918 -25.4297 404.21869999999996 32.9688">
  <g transform="matrix(1 0 0 1 0 0)" class="aD6z1nYkhcolor"><path id="id-D6z1nYkh21" d="M13.57 0.51Q15.70 0.51 17.65-0.08Q19.59-0.66 21.05-1.57Q22.52-2.48 23.34-3.44L23.34-3.44L22.40-5.49Q20.96-4.43 19.23-3.76Q17.50-3.09 15.61-3.09L15.61-3.09Q13.01-3.09 11.04-4.28Q9.06-5.47 7.96-7.77Q6.86-10.08 6.86-13.32L6.86-13.32Q6.86-16.11 7.71-18.10Q8.55-20.08 10.12-21.09Q11.68-22.11 13.77-22.11L13.77-22.11Q15.21-22.11 16.47-21.60Q17.73-21.09 18.42-20.23L18.42-20.23L19.43-15.82L21.97-15.47L22.56-22.85Q21.37-23.77 19.20-24.29Q17.03-24.80 14.94-24.80L14.94-24.80Q10.08-24.80 6.92-22.77Q3.77-20.74 2.34-17.68Q0.92-14.61 0.92-11.45L0.92-11.45Q0.92-7.70 2.50-5Q4.08-2.30 6.93-0.90Q9.79 0.51 13.57 0.51L13.57 0.51Z M28.59 7.44Q30.41 7.44 31.72 6.80Q33.03 6.15 34.11 4.69Q35.20 3.22 36.29 0.66L36.29 0.66L42.68-14.28L44.61-15.27L44.84-17.54L37.40-17.54L36.99-15.27L39.41-14.22L35.80-5.31L32.42-14.36L34.53-15.27L34.82-17.54L25.31-17.54L24.96-15.23L27.42-14.28L33.24 0.18L32.93 0.88Q32.38 2.07 31.61 2.50Q30.84 2.93 29.88 2.93L29.88 2.93Q28.87 2.93 27.91 2.59Q26.95 2.25 26.21 1.58L26.21 1.58Q25.41 2.34 25.13 3.08Q24.84 3.81 24.84 4.69L24.84 4.69Q24.84 5.41 25.37 6.04Q25.90 6.68 26.76 7.06Q27.62 7.44 28.59 7.44L28.59 7.44Z M55 0.59Q56.43 0.59 57.77 0.17Q59.12-0.25 60.15-0.98Q61.17-1.70 61.68-2.54L61.68-2.54L61.05-4.12Q60-3.48 59.04-3.15Q58.09-2.83 56.68-2.83L56.68-2.83Q55-2.83 53.82-3.92Q52.64-5 52.04-6.65Q51.45-8.30 51.45-9.98L51.45-9.98Q51.45-12.68 52.27-14.06Q53.09-15.45 54.61-15.45L54.61-15.45Q55.63-15.45 56.35-14.52Q57.07-13.59 57.75-11.64L57.75-11.64Q59.24-11.78 60.11-12.46Q60.98-13.14 60.98-14.38L60.98-14.38Q60.98-15.45 60.37-16.33Q59.77-17.21 58.59-17.72Q57.42-18.24 55.82-18.24L55.82-18.24Q53.54-18.24 51.36-17.02Q49.18-15.80 47.80-13.52Q46.43-11.23 46.43-8.20L46.43-8.20Q46.43-5.64 47.38-3.66Q48.34-1.68 50.26-0.55Q52.19 0.59 55 0.59L55 0.59Z M62.91 0L73.67 0L73.93-2.48L70.84-3.38L70.84-24.65L70.04-25.43L63.42-24.96L62.97-22.54L66.13-21.02L66.13-3.38L63.16-2.50L62.91 0Z M81.09-20Q82.21-20 83.00-20.37Q83.79-20.74 84.20-21.37Q84.61-21.99 84.61-22.73L84.61-22.73Q84.61-23.46 84.18-24.05Q83.75-24.65 82.95-25Q82.15-25.35 81.09-25.35L81.09-25.35Q80.06-25.35 79.29-25.01Q78.52-24.67 78.10-24.08Q77.68-23.50 77.68-22.77L77.68-22.77Q77.68-21.58 78.54-20.79Q79.41-20 81.09-20L81.09-20ZM75.82 0L86.64 0L86.86-2.48L83.71-3.38L83.71-16.91L82.93-17.70L76.52-17.23L76.09-14.79L79.00-13.18L79.00-3.38L76.02-2.50L75.82 0Z M98.93 0L99.36-2.38L96.70-3.36L96.70-11.99Q98.03-13.32 99.86-13.32L99.86-13.32Q101.09-13.32 101.80-12.47Q102.50-11.62 102.50-9.82L102.50-9.82L102.50-3.36L101.15-2.25L101.05 0L109.71 0L110.02-2.38L107.17-3.36L107.17-12.27Q107.17-15.04 105.92-16.45Q104.67-17.85 102.40-17.85L102.40-17.85Q100.78-17.85 99.38-17.03Q97.97-16.21 96.66-14.77L96.66-14.77L96.41-14.82L96.80-17.07L96.27-17.64L89.41-16.97L89.04-14.59L91.93-13.28L91.93-3.36L89.08-2.25L88.81 0L98.93 0Z M119.04 7.54Q121.86 7.54 124.16 6.52Q126.46 5.51 127.79 3.89Q129.12 2.27 129.12 0.53L129.12 0.53Q129.12-1.88 127.59-2.85Q126.05-3.83 123.11-3.83L123.11-3.83L120.45-3.83Q118.91-3.83 118.31-4.14Q117.71-4.45 117.71-5.02L117.71-5.02Q117.71-5.59 118.46-6.37L118.46-6.37Q119.39-6.19 119.98-6.19L119.98-6.19Q121.72-6.19 123.30-6.92Q124.88-7.66 125.87-9.03Q126.86-10.41 126.86-12.25L126.86-12.25Q126.86-12.70 126.75-13.21Q126.64-13.73 126.50-14.10L126.50-14.10L126.54-14.30L128.63-13.63L129.12-13.67L129.94-16.64L129.45-17.21Q128.85-17.15 127.43-17.00Q126.02-16.86 125.06-16.74L125.06-16.74Q124.22-17.29 123.10-17.63Q121.97-17.97 120.27-17.97L120.27-17.97Q118.36-17.97 116.76-17.11Q115.16-16.25 114.23-14.83Q113.30-13.42 113.30-11.84L113.30-11.84Q113.30-10.68 113.84-9.63Q114.38-8.57 115.14-7.85Q115.90-7.13 116.50-6.91L116.50-6.91L116.52-6.68Q115.72-6.45 114.90-5.89Q114.08-5.33 113.54-4.64Q112.99-3.95 112.99-3.30L112.99-3.30Q112.99-2.29 113.46-1.60Q113.93-0.92 114.84-0.47L114.84-0.47L114.84-0.23Q113.63 0.18 112.69 1.11Q111.74 2.05 111.74 3.05L111.74 3.05Q111.74 4.73 112.84 5.73Q113.95 6.74 115.60 7.14Q117.25 7.54 119.04 7.54L119.04 7.54ZM119.82-15.98Q120.76-15.98 121.38-15.26Q121.99-14.55 122.28-13.58Q122.56-12.62 122.56-11.89L122.56-11.89Q122.56-10.51 122.31-9.72Q122.07-8.93 121.53-8.58Q121.00-8.24 120.10-8.24L120.10-8.24Q119.79-8.24 119.18-8.64Q118.57-9.04 118.09-9.94Q117.60-10.84 117.60-12.23L117.60-12.23Q117.60-14.10 118.18-15.04Q118.77-15.98 119.82-15.98L119.82-15.98ZM116.86-0.06L120.47-0.06Q121.95-0.06 122.80 0.13Q123.65 0.31 124.04 0.76Q124.43 1.21 124.43 1.99L124.43 1.99Q124.43 3.44 123.35 4.09Q122.27 4.75 120.37 4.75L120.37 4.75Q116.17 4.75 116.17 1.84L116.17 1.84Q116.17 1.29 116.32 0.93Q116.46 0.57 116.65 0.29Q116.84 0.02 116.86-0.06L116.86-0.06Z M144.32 0.51Q146.45 0.51 148.39-0.08Q150.33-0.66 151.80-1.57Q153.26-2.48 154.08-3.44L154.08-3.44L153.14-5.49Q151.70-4.43 149.97-3.76Q148.24-3.09 146.35-3.09L146.35-3.09Q143.75-3.09 141.78-4.28Q139.80-5.47 138.70-7.77Q137.60-10.08 137.60-13.32L137.60-13.32Q137.60-16.11 138.45-18.10Q139.30-20.08 140.86-21.09Q142.42-22.11 144.51-22.11L144.51-22.11Q145.96-22.11 147.22-21.60Q148.48-21.09 149.16-20.23L149.16-20.23L150.18-15.82L152.71-15.47L153.30-22.85Q152.11-23.77 149.94-24.29Q147.77-24.80 145.68-24.80L145.68-24.80Q140.82-24.80 137.67-22.77Q134.51-20.74 133.09-17.68Q131.66-14.61 131.66-11.45L131.66-11.45Q131.66-7.70 133.24-5Q134.82-2.30 137.68-0.90Q140.53 0.51 144.32 0.51L144.32 0.51Z M164.41 0.53Q166.95 0.53 168.96-0.67Q170.98-1.88 172.11-4.06Q173.24-6.25 173.24-9.10L173.24-9.10Q173.24-11.95 172.27-13.97Q171.29-16.00 169.40-17.05Q167.52-18.11 164.86-18.11L164.86-18.11Q162.62-18.11 160.53-16.97Q158.44-15.84 157.11-13.70Q155.78-11.56 155.78-8.71L155.78-8.71Q155.78-6.11 156.68-4.03Q157.58-1.95 159.52-0.71Q161.46 0.53 164.41 0.53L164.41 0.53ZM164.08-15.04Q166.35-15.04 167.28-12.70Q168.20-10.35 168.20-6.99L168.20-6.99Q168.20-4.80 167.42-3.56Q166.64-2.32 165.06-2.32L165.06-2.32Q162.83-2.32 161.81-4.40Q160.78-6.48 160.78-10L160.78-10Q160.78-12.32 161.57-13.68Q162.36-15.04 164.08-15.04L164.08-15.04Z M185.20 0L185.59-2.38L182.97-3.36L182.97-11.95Q183.63-12.62 184.45-12.96Q185.27-13.30 186.17-13.30L186.17-13.30Q187.36-13.30 188.06-12.43Q188.75-11.56 188.75-9.90L188.75-9.90L188.75-3.36L187.48-2.27L187.38 0L195.78 0L196.11-2.38L193.40-3.36L193.40-11.88Q194.12-12.56 194.86-12.93Q195.61-13.30 196.52-13.30L196.52-13.30Q197.77-13.30 198.44-12.42Q199.10-11.54 199.10-9.90L199.10-9.90L199.10-3.36L197.87-2.27L197.81 0L206.21 0L206.56-2.38L203.77-3.36L203.77-12.21Q203.77-14.98 202.57-16.36Q201.37-17.73 199.06-17.73L199.06-17.73Q196.09-17.73 193.28-14.53L193.28-14.53L193.01-14.57Q192.56-16.27 191.42-17.04Q190.27-17.81 188.67-17.81L188.67-17.81Q185.63-17.81 182.93-14.77L182.93-14.77L182.70-14.80L183.09-17.03L182.54-17.62L175.63-16.93L175.27-14.57L178.22-13.28L178.22-3.36L175.37-2.27L175.12 0L185.20 0Z M216.21 0.12L216.19-1.02L216.19 3.91L220.10 4.90L219.77 7.25L208.30 7.25L208.54 4.94L211.54 3.89L211.54-13.36L208.57-14.59L208.95-16.99L215.84-17.62L216.43-17.07L216.07-15L216.27-14.94Q217.15-16.19 218.51-17.08Q219.86-17.97 221.62-17.97L221.62-17.97Q223.36-17.97 224.78-17.06Q226.19-16.15 227.03-14.22Q227.87-12.29 227.87-9.34L227.87-9.34Q227.87-6.33 226.67-4.13Q225.47-1.93 223.37-0.78Q221.27 0.37 218.65 0.37L218.65 0.37Q216.91 0.37 216.21 0.12L216.21 0.12ZM219.75-13.79Q218.07-13.79 216.19-12.27L216.19-12.27L216.19-3.26Q216.91-2.93 217.60-2.78Q218.28-2.64 219.20-2.64L219.20-2.64Q220.94-2.64 221.92-3.99Q222.91-5.35 222.91-7.77L222.91-7.77Q222.91-10.66 222.12-12.23Q221.33-13.79 219.75-13.79L219.75-13.79Z M233.81 0.47Q235.06 0.47 236.14 0.01Q237.23-0.45 237.98-1.13Q238.73-1.82 239.02-2.50L239.02-2.50L239.26-2.44L239.32-2.17Q239.59-0.96 240.26-0.27Q240.94 0.41 242.44 0.41L242.44 0.41Q243.54 0.41 244.21 0.23Q244.88 0.06 245.55-0.35L245.55-0.35L245.92-2.85L245.16-2.99Q244.22-3.16 243.84-3.47Q243.46-3.77 243.38-4.26Q243.30-4.75 243.30-5.90L243.30-5.90L243.30-12.05Q243.30-15.18 241.99-16.61Q240.68-18.05 238.22-18.05L238.22-18.05Q236.56-18.05 234.69-17.35Q232.81-16.66 231.55-15.59Q230.29-14.51 230.29-13.46L230.29-13.46Q230.29-12.07 231.29-11.62Q232.29-11.17 233.89-11.17L233.89-11.17Q234.02-12.89 234.18-13.73Q234.34-14.57 234.70-14.97Q235.06-15.37 235.76-15.37L235.76-15.37Q237.19-15.37 237.95-14.18Q238.71-12.99 238.71-11.21L238.71-11.21L238.71-9.75Q235.78-9.65 233.77-8.77Q231.76-7.89 230.75-6.50Q229.75-5.12 229.75-3.48L229.75-3.48Q229.75-1.58 230.87-0.56Q231.99 0.47 233.81 0.47L233.81 0.47ZM238.71-8.07L238.71-4.12Q238.20-3.65 237.53-3.31Q236.86-2.97 236.21-2.97L236.21-2.97Q235.35-2.97 234.85-3.54Q234.36-4.10 234.36-4.82L234.36-4.82Q234.36-5.96 235.36-6.82Q236.37-7.68 238.71-8.07L238.71-8.07Z M260.08-0.02L260.31-2.70L255.70-3.63L255.70-9.41Q256.04-10.90 256.83-11.84Q257.62-12.77 258.69-12.77L258.69-12.77Q259.80-12.77 261.15-11.91L261.15-11.91Q261.99-12.62 262.46-13.43Q262.93-14.24 262.93-15.27L262.93-15.27Q262.93-16.41 262.18-17.17Q261.43-17.93 260.16-17.93L260.16-17.93Q258.69-17.93 257.43-16.79Q256.17-15.64 255.45-13.32L255.45-13.32L255.08-13.42L255.45-17.03L254.84-17.66L248.48-17.01L248.09-14.63L251.05-13.40L251.05-3.36L248.13-2.30L247.81-0.02L260.08-0.02Z M271.31 0.61Q273.20 0.61 275.06-0.04Q276.91-0.68 278.11-1.91L278.11-1.91L277.71-4.12Q276.56-3.52 275.48-3.33Q274.39-3.14 273.09-3.14L273.09-3.14Q270.88-3.14 269.75-4.49Q268.61-5.84 268.50-7.93L268.50-7.93L277.30-8.13Q277.42-8.65 277.55-9.77Q277.68-10.88 277.68-11.35L277.68-11.35Q277.68-13.38 276.98-14.90Q276.29-16.43 275.02-17.25Q273.75-18.07 272.07-18.07L272.07-18.07Q269.96-18.07 268.00-16.85Q266.04-15.63 264.79-13.42Q263.55-11.21 263.55-8.38L263.55-8.38Q263.55-5.51 264.59-3.48Q265.63-1.45 267.38-0.42Q269.14 0.61 271.31 0.61L271.31 0.61ZM270.98-14.80Q272.09-14.80 272.62-13.97Q273.14-13.14 273.14-11.74L273.14-11.74Q273.14-11.46 273.12-11.04Q273.09-10.61 273.03-10.43L273.03-10.43L268.44-9.98Q268.48-11.46 268.83-12.56Q269.18-13.65 269.75-14.23Q270.31-14.80 270.98-14.80L270.98-14.80Z M283.16 0.55Q284.80 0.55 285.64-0.21Q286.48-0.96 286.48-2.15L286.48-2.15Q286.48-2.81 286.13-3.40Q285.78-3.98 285.03-4.36Q284.28-4.73 283.16-4.73L283.16-4.73Q282.11-4.73 281.39-4.36Q280.66-3.98 280.31-3.40Q279.96-2.81 279.96-2.15L279.96-2.15Q279.96-1.00 280.74-0.22Q281.52 0.55 283.16 0.55L283.16 0.55Z M297.03 0.59Q298.46 0.59 299.80 0.17Q301.15-0.25 302.18-0.98Q303.20-1.70 303.71-2.54L303.71-2.54L303.09-4.12Q302.03-3.48 301.07-3.15Q300.12-2.83 298.71-2.83L298.71-2.83Q297.03-2.83 295.85-3.92Q294.67-5 294.07-6.65Q293.48-8.30 293.48-9.98L293.48-9.98Q293.48-12.68 294.30-14.06Q295.12-15.45 296.64-15.45L296.64-15.45Q297.66-15.45 298.38-14.52Q299.10-13.59 299.79-11.64L299.79-11.64Q301.27-11.78 302.14-12.46Q303.01-13.14 303.01-14.38L303.01-14.38Q303.01-15.45 302.40-16.33Q301.80-17.21 300.63-17.72Q299.45-18.24 297.85-18.24L297.85-18.24Q295.57-18.24 293.39-17.02Q291.21-15.80 289.83-13.52Q288.46-11.23 288.46-8.20L288.46-8.20Q288.46-5.64 289.41-3.66Q290.37-1.68 292.29-0.55Q294.22 0.59 297.03 0.59L297.03 0.59Z M313.57 0.53Q316.11 0.53 318.13-0.67Q320.14-1.88 321.27-4.06Q322.40-6.25 322.40-9.10L322.40-9.10Q322.40-11.95 321.43-13.97Q320.45-16.00 318.56-17.05Q316.68-18.11 314.02-18.11L314.02-18.11Q311.78-18.11 309.69-16.97Q307.60-15.84 306.27-13.70Q304.94-11.56 304.94-8.71L304.94-8.71Q304.94-6.11 305.84-4.03Q306.74-1.95 308.68-0.71Q310.63 0.53 313.57 0.53L313.57 0.53ZM313.24-15.04Q315.51-15.04 316.44-12.70Q317.36-10.35 317.36-6.99L317.36-6.99Q317.36-4.80 316.58-3.56Q315.80-2.32 314.22-2.32L314.22-2.32Q311.99-2.32 310.97-4.40Q309.94-6.48 309.94-10L309.94-10Q309.94-12.32 310.73-13.68Q311.52-15.04 313.24-15.04L313.24-15.04Z M334.36 0L334.75-2.38L332.13-3.36L332.13-11.95Q332.79-12.62 333.61-12.96Q334.43-13.30 335.33-13.30L335.33-13.30Q336.52-13.30 337.22-12.43Q337.91-11.56 337.91-9.90L337.91-9.90L337.91-3.36L336.64-2.27L336.54 0L344.94 0L345.27-2.38L342.56-3.36L342.56-11.88Q343.28-12.56 344.02-12.93Q344.77-13.30 345.68-13.30L345.68-13.30Q346.93-13.30 347.60-12.42Q348.26-11.54 348.26-9.90L348.26-9.90L348.26-3.36L347.03-2.27L346.97 0L355.37 0L355.72-2.38L352.93-3.36L352.93-12.21Q352.93-14.98 351.73-16.36Q350.53-17.73 348.22-17.73L348.22-17.73Q345.25-17.73 342.44-14.53L342.44-14.53L342.17-14.57Q341.72-16.27 340.58-17.04Q339.43-17.81 337.83-17.81L337.83-17.81Q334.79-17.81 332.09-14.77L332.09-14.77L331.86-14.80L332.25-17.03L331.70-17.62L324.79-16.93L324.43-14.57L327.38-13.28L327.38-3.36L324.53-2.27L324.28 0L334.36 0Z M361.13 0.55Q362.77 0.55 363.61-0.21Q364.45-0.96 364.45-2.15L364.45-2.15Q364.45-2.81 364.10-3.40Q363.75-3.98 363.00-4.36Q362.25-4.73 361.13-4.73L361.13-4.73Q360.08-4.73 359.36-4.36Q358.63-3.98 358.28-3.40Q357.93-2.81 357.93-2.15L357.93-2.15Q357.93-1.00 358.71-0.22Q359.49 0.55 361.13 0.55L361.13 0.55Z M370.68 0.47Q371.93 0.47 373.02 0.01Q374.10-0.45 374.85-1.13Q375.61-1.82 375.90-2.50L375.90-2.50L376.13-2.44L376.19-2.17Q376.46-0.96 377.14-0.27Q377.81 0.41 379.32 0.41L379.32 0.41Q380.41 0.41 381.08 0.23Q381.76 0.06 382.42-0.35L382.42-0.35L382.79-2.85L382.03-2.99Q381.09-3.16 380.71-3.47Q380.33-3.77 380.25-4.26Q380.18-4.75 380.18-5.90L380.18-5.90L380.18-12.05Q380.18-15.18 378.87-16.61Q377.56-18.05 375.10-18.05L375.10-18.05Q373.44-18.05 371.56-17.35Q369.69-16.66 368.43-15.59Q367.17-14.51 367.17-13.46L367.17-13.46Q367.17-12.07 368.16-11.62Q369.16-11.17 370.76-11.17L370.76-11.17Q370.90-12.89 371.05-13.73Q371.21-14.57 371.57-14.97Q371.93-15.37 372.64-15.37L372.64-15.37Q374.06-15.37 374.82-14.18Q375.59-12.99 375.59-11.21L375.59-11.21L375.59-9.75Q372.66-9.65 370.64-8.77Q368.63-7.89 367.63-6.50Q366.62-5.12 366.62-3.48L366.62-3.48Q366.62-1.58 367.74-0.56Q368.87 0.47 370.68 0.47L370.68 0.47ZM375.59-8.07L375.59-4.12Q375.08-3.65 374.40-3.31Q373.73-2.97 373.09-2.97L373.09-2.97Q372.23-2.97 371.73-3.54Q371.23-4.10 371.23-4.82L371.23-4.82Q371.23-5.96 372.24-6.82Q373.24-7.68 375.59-8.07L375.59-8.07Z M387.11-13.09L387.11-5.21Q387.11-2.15 388.25-0.81Q389.39 0.53 391.89 0.53L391.89 0.53Q393.52 0.53 394.95-0.27Q396.39-1.07 397.32-2.58L397.32-2.58L397.58-2.54L397.58-2.30Q397.58-0.92 398.48-0.18Q399.38 0.57 400.94 0.57L400.94 0.57Q401.93 0.57 402.86 0.38Q403.79 0.20 404.82-0.20L404.82-0.20L405.14-2.66L404.43-2.85Q403.48-3.13 402.99-3.41Q402.50-3.69 402.27-4.23Q402.03-4.77 402.03-5.74L402.03-5.74L402.03-16.95L401.31-17.71L394.94-17.03L394.51-14.10L397.21-12.95L397.21-5.23Q396.54-4.61 395.88-4.31Q395.21-4.00 394.28-4.00L394.28-4.00Q393.13-4.00 392.55-4.84Q391.97-5.68 391.97-7.68L391.97-7.68L391.97-16.88L391.19-17.64L385.02-17.23L384.55-14.65L387.11-13.09Z"/></g>
</svg>
</g></svg>